<svg width="32" height="32" viewBox="0 0 558 558" fill="none" xmlns="http://www.w3.org/2000/svg">
    <path d="M314.436 124.441L316.022 125.889C315.47 152.294 315.194 197.245 315.194 260.811C315.194 299.695 315.47 342.854 316.022 390.287L319.468 393.528C334.291 392.701 344.219 391.873 349.39 391.115L352.01 394.906C344.013 424.828 337.118 456.611 331.189 490.255L327.949 493.496H323.123L319.675 490.255C320.365 462.816 320.709 447.097 320.709 443.167C320.709 432.274 320.158 425.242 319.193 422.001C318.159 418.761 316.573 416.348 314.436 414.831C312.298 413.246 308.3 412.212 302.509 411.591C296.717 410.97 280.86 410.557 255.006 410.281C229.153 410.005 212.261 409.867 204.333 409.867C171.998 409.867 146.972 410.005 129.184 410.281C111.396 410.557 100.641 411.246 96.7806 412.418C92.9194 413.521 90.1619 415.589 88.3696 418.623C86.6454 421.657 85.7493 429.102 85.7493 440.961C85.7493 444.891 86.0944 460.886 86.7834 489.014L83.3368 492.462H78.7171L75.2698 489.014C69.2029 454.543 62.3087 422.76 54.4491 393.735L57.0691 390.08C65.4113 391.391 75.4769 392.218 87.1972 392.493C103.882 370.293 121.67 345.543 140.49 318.379L191.026 245.437L230.6 188.282C241.907 171.598 248.181 162.015 249.491 159.533C250.732 156.982 251.559 155.258 251.835 154.224C252.041 153.259 252.179 152.363 252.179 151.535C252.179 147.192 249.56 144.089 244.251 142.159C238.942 140.16 223.706 138.574 198.679 137.402L197.094 135.954V125.889L198.679 124.441C200.334 124.441 208.331 124.717 222.741 125.268C235.633 125.819 247.078 126.095 257.075 126.095C263.762 126.095 282.928 125.544 314.436 124.441ZM276.034 390.287C276.999 346.922 277.482 303.763 277.482 260.811C277.482 233.165 276.999 196.418 276.034 150.501H270.588C193.301 269.429 142.766 349.335 118.911 390.287L121.738 393.321C140.698 394.079 166.344 394.493 198.679 394.493C227.773 394.493 252.524 394.079 273 393.321L276.034 390.287Z" fill="#d7d7d7" stroke="#282828" stroke-width="2.00013" stroke-miterlimit="22.9256"/>
    <path d="M316.954 272.866C350.875 273.969 372.523 274.52 381.761 274.52C394.447 274.52 408.65 274.176 424.369 273.486C441.122 272.935 451.394 272.659 455.325 272.659C474.146 272.659 489.727 274.658 502.068 278.52C514.409 282.449 524.613 289.619 532.679 299.961C540.745 310.302 544.813 322.85 544.813 337.535C544.813 349.669 541.987 361.389 536.333 372.696C530.611 384.003 522.751 393.586 512.685 401.584C502.551 409.512 492.347 415.165 481.937 418.613C471.595 422.06 460.84 423.783 449.671 423.783C441.329 423.783 432.021 422.819 421.749 420.957L418.37 408.616L420.163 406.617C430.229 408.891 438.502 410.064 444.776 410.064C462.426 410.064 476.628 404.204 487.314 392.552C498 380.901 503.378 366.009 503.378 347.808C503.378 329.538 497.794 314.921 486.694 303.96C475.594 293.066 458.771 287.62 436.296 287.62C424.093 287.62 410.58 289.895 395.895 294.514C394.723 304.856 394.102 329.882 394.102 369.663V463.15L394.31 502.517C394.447 517.754 394.861 527.613 395.55 532.025C396.171 536.506 397.136 539.471 398.446 540.919C399.756 542.435 402.169 543.677 405.823 544.642C409.477 545.676 418.44 546.434 432.711 546.986L434.297 548.158V553.889C315.3 553.889 434.297 553.889 315.3 553.889V548.158L316.954 546.986C329.502 546.434 337.844 545.745 341.981 544.986C346.187 544.159 348.945 543.125 350.392 541.815C351.771 540.574 352.943 537.816 353.839 533.68C354.667 529.474 355.218 520.167 355.287 505.758L355.494 463.15V369.663L355.149 330.227C355.011 314.921 354.598 304.994 353.977 300.581C353.426 296.1 352.46 293.135 351.15 291.688C349.91 290.171 347.428 288.999 343.842 288.033C340.189 287.068 331.226 286.379 316.954 285.827L315.3 284.38V274.314L316.954 272.866Z" fill="#d7d7d7" stroke="#282828" stroke-width="2.00013" stroke-miterlimit="22.9256"/>
    <path d="M90.8505 138.021L109.465 122.234C113.602 118.787 118.497 114.305 124.15 108.928L141.524 92.1741L186.613 47.0847C206.124 27.5737 216.81 16.336 218.741 13.3717V4.70979C288.167 4.70979 218.741 4.70979 288.167 4.70979V10.1311L286.582 11.9926C274.447 12.1305 265.416 12.8199 259.418 14.1299C253.42 15.3711 247.146 18.1286 240.527 22.4029C233.909 26.6087 222.464 36.0542 206.193 50.7391L125.184 124.095L250.248 241.437C268.794 258.811 279.618 268.394 282.652 270.324C285.685 272.186 290.65 273.22 297.681 273.358L299.129 274.944V283.424L297.681 285.079C273.275 284.527 258.66 283.906 253.626 283.217C248.662 282.597 243.63 280.942 238.597 278.391C233.564 275.84 184.269 231.716 90.8505 146.088V189.109L91.0576 228.683C91.1956 243.781 91.6087 253.571 92.2981 258.121C92.9191 262.603 93.884 265.567 95.1943 266.946C96.5036 268.394 98.9168 269.635 102.433 270.6C106.018 271.634 115.118 272.393 129.597 272.944L131.045 274.116V284.251L129.597 285.837C127.735 285.837 115.808 285.492 93.884 284.665C84.1627 284.389 76.7173 284.251 71.4774 284.251C69.2713 284.251 50.0358 284.803 13.7024 285.837L12.0477 284.251V274.116L13.7024 272.944C32.2486 272.255 43.0724 270.876 46.037 268.67C49.0017 266.532 50.6564 262.327 51.139 256.053C51.6217 249.779 52.0351 227.511 52.2419 189.109V95.621L51.8976 55.9787C51.8976 40.8111 51.5529 30.9522 50.8635 26.5396C50.1737 22.0586 49.2084 19.0935 47.8985 17.6464C46.658 16.1293 44.2448 14.9572 40.6595 13.9919C37.0747 13.0266 28.1119 12.3373 13.7024 11.7854L12.0477 10.3383L11.6581 4C131.045 4.7098 11.6581 3.99999 131.045 4.70979V10.3383L129.597 11.7854C116.428 12.1993 107.88 12.8199 103.881 13.7164C99.8821 14.5437 97.2625 15.7158 95.8833 17.0254C94.5734 18.4045 93.4701 21.1621 92.574 25.2988C91.6779 29.5042 91.1956 38.6053 91.0576 52.8073L90.8505 95.621V138.021Z" fill="#d7d7d7" stroke="#282828" stroke-width="2.00013" stroke-miterlimit="22.9256"/>
    <path d="M553.179 4.70978H4V553.889H553.179V4.70978Z" stroke="#d7d7d7" stroke-width="8.00013" stroke-miterlimit="22.9256"/>
</svg>